<svg xmlns="http://www.w3.org/2000/svg" width="165" height="30" viewBox="0 0 165 30"><defs><style>.a{fill:#136bb5;}</style></defs><g transform="translate(-128.084 -560.004)"><path class="a" d="M150.545,589.052l14.013,16.387h5.461l-14.013-16.387Z" transform="translate(-17.198 -22.241)"/><path class="a" d="M128.084,590h30V560h-30Zm3.853-26.148h22.294v22.3H131.937Z"/><path class="a" d="M315.589,580.5a17.938,17.938,0,0,1-.9-2.753H309a20.3,20.3,0,0,1-.847,2.753l-5.769,15.588a24.557,24.557,0,0,1-1.35,3.176h5.24a13.217,13.217,0,0,1,.714-2.805l.9-2.567h7.992l.9,2.567a18.9,18.9,0,0,1,.688,2.805h5.24c-.317-.662-.794-1.826-1.3-3.176ZM309,590.158l2.488-7.49c.185-.529.212-.662.37-1.217.212.715.318.979.4,1.217l2.514,7.49Z" transform="translate(-132.558 -13.585)"/><path class="a" d="M403.907,575.827c-6.246,0-10.269,4.367-10.269,11.168,0,6.854,4.023,11.274,10.269,11.274,6.193,0,10.268-4.473,10.268-11.3a11.559,11.559,0,0,0-3.044-8.389A9.673,9.673,0,0,0,403.907,575.827Zm.026,18.6c-3.546,0-5.769-2.885-5.769-7.49,0-4.473,2.223-7.3,5.743-7.3a5.169,5.169,0,0,1,3.758,1.482A8.1,8.1,0,0,1,409.623,587C409.623,591.6,407.453,594.432,403.933,594.432Z" transform="translate(-203.535 -12.115)"/><path class="a" d="M502.412,585.817a25.81,25.81,0,0,0-5.213-1.429,7.143,7.143,0,0,1-2.488-.873,2.052,2.052,0,0,1-.9-1.72c0-1.509,1.376-2.514,3.441-2.514a3.788,3.788,0,0,1,2.937,1.112,3.22,3.22,0,0,1,.688,1.694l4.658-.5a7.47,7.47,0,0,0-1.349-3.229c-1.376-1.8-3.758-2.752-6.907-2.752-4.9,0-7.993,2.461-7.993,6.352a5.625,5.625,0,0,0,2.276,4.684,10.29,10.29,0,0,0,4.128,1.588c2.885.662,3.705.926,4.526,1.456a2.12,2.12,0,0,1,1.032,1.905c0,1.694-1.455,2.753-3.758,2.753a4.282,4.282,0,0,1-3.52-1.429,3.483,3.483,0,0,1-.714-2.144l-4.605.45a7.448,7.448,0,0,0,1.535,4.155c1.4,1.773,3.97,2.726,7.383,2.726,5.293,0,8.31-2.461,8.31-6.775a6.049,6.049,0,0,0-.794-3.2A5.961,5.961,0,0,0,502.412,585.817Z" transform="translate(-276.35 -11.942)"/><path class="a" d="M586.194,587.7a5.157,5.157,0,0,0,1.985-1.112,4.754,4.754,0,0,0,1.508-3.785c0-3.414-2.382-5.32-6.59-5.32h-6.59c-1.985,0-2.276,0-3.6-.079a25.709,25.709,0,0,1,.212,3.573v14.371a23.618,23.618,0,0,1-.212,3.732c1.111-.053,1.879-.079,3.626-.079h6.855c4.525,0,7.04-2.117,7.04-5.928a5.25,5.25,0,0,0-1.667-4.129A5.555,5.555,0,0,0,586.194,587.7Zm-8.734-6.563h5.029c1.826,0,2.805.847,2.805,2.408,0,1.535-1.032,2.488-2.779,2.488H577.46Zm5.267,14.185H577.46v-5.716h5.214c2.064,0,3.229,1.006,3.229,2.832S584.738,595.325,582.727,595.325Z" transform="translate(-340.93 -13.326)"/><path class="a" d="M672.84,578.579a9.674,9.674,0,0,0-7.225-2.752c-6.246,0-10.268,4.367-10.268,11.168,0,6.854,4.023,11.274,10.268,11.274,6.193,0,10.269-4.473,10.269-11.3A11.56,11.56,0,0,0,672.84,578.579Zm-7.2,15.853c-3.546,0-5.769-2.885-5.769-7.49,0-4.473,2.223-7.3,5.743-7.3a5.169,5.169,0,0,1,3.758,1.482A8.1,8.1,0,0,1,671.332,587C671.332,591.6,669.162,594.432,665.642,594.432Z" transform="translate(-404.193 -12.115)"/><path class="a" d="M759.525,595.716l-5.611-7.86,4.843-6.8c.979-1.376,1.641-2.276,2.488-3.308h-5.717a17.99,17.99,0,0,1-1.8,3.2l-2.462,3.837-2.54-3.811a21.388,21.388,0,0,1-1.826-3.229h-5.743c.926,1.112,1.641,2.064,2.594,3.388l4.79,6.722-5.611,7.86c-.794,1.112-1.138,1.561-2.726,3.546h5.849c.635-1.165,1.165-2.011,1.852-3.1l3.308-5.082,3.335,5.082c.741,1.164,1.323,2.144,1.826,3.1h5.876C761.033,597.754,760.345,596.88,759.525,595.716Z" transform="translate(-469.167 -13.585)"/></g></svg>